<?xml version="1.0" encoding="UTF-8" standalone="no"?>
<svg
   xmlns:dc="http://purl.org/dc/elements/1.1/"
   xmlns:cc="http://creativecommons.org/ns#"
   xmlns:rdf="http://www.w3.org/1999/02/22-rdf-syntax-ns#"
   xmlns:svg="http://www.w3.org/2000/svg"
   xmlns="http://www.w3.org/2000/svg"
   xmlns:sodipodi="http://sodipodi.sourceforge.net/DTD/sodipodi-0.dtd"
   xmlns:inkscape="http://www.inkscape.org/namespaces/inkscape"
   width="210mm"
   height="297mm"
   viewBox="0 0 210 297"
   version="1.1"
   id="svg8"
   inkscape:version="1.0.2-2 (e86c870879, 2021-01-15)"
   sodipodi:docname="NewFont.svg">
  <defs
     id="defs2" />
  <sodipodi:namedview
     id="base"
     pagecolor="#ffffff"
     bordercolor="#666666"
     borderopacity="1.0"
     inkscape:pageopacity="0.0"
     inkscape:pageshadow="2"
     inkscape:zoom="1.979899"
     inkscape:cx="359.75042"
     inkscape:cy="264.69309"
     inkscape:document-units="mm"
     inkscape:current-layer="layer1"
     inkscape:document-rotation="0"
     showgrid="false"
     inkscape:window-width="1920"
     inkscape:window-height="1002"
     inkscape:window-x="-8"
     inkscape:window-y="-8"
     inkscape:window-maximized="1" />
  <metadata
     id="metadata5">
    <rdf:RDF>
      <cc:Work
         rdf:about="">
        <dc:format>image/svg+xml</dc:format>
        <dc:type
           rdf:resource="http://purl.org/dc/dcmitype/StillImage" />
        <dc:title></dc:title>
      </cc:Work>
    </rdf:RDF>
  </metadata>
  <g
     inkscape:label="Layer 1"
     inkscape:groupmode="layer"
     id="layer1">
    <path
       style="fill:#000000;stroke-width:0.0298824"
       d="m 68.923901,78.34135 c -0.17052,-0.07709 -0.21135,-0.257269 -0.0851,-0.375824 l 0.0741,-0.0696 -0.0741,-0.06865 c -0.0605,-0.05605 -0.0741,-0.09707 -0.0741,-0.223439 0,-0.138849 0.011,-0.165169 0.10701,-0.255703 l 0.10701,-0.100925 -0.0803,-0.09541 c -0.0714,-0.08488 -0.0789,-0.114527 -0.0677,-0.268693 0.0101,-0.140172 0.0289,-0.190335 0.098,-0.262528 0.11689,-0.122001 0.25028,-0.142903 0.40943,-0.06416 l 0.12581,0.06224 0.0565,-0.06069 c 0.0732,-0.07857 0.18232,-0.06463 0.19504,0.02492 0.007,0.04916 -0.005,0.06724 -0.0463,0.06724 -0.0307,0 -0.072,-0.01614 -0.0917,-0.03586 -0.0694,-0.06939 -0.10107,0.01465 -0.0614,0.162936 0.0282,0.105374 0.0286,0.163361 0.002,0.253125 -0.053,0.177002 -0.15452,0.254666 -0.36526,0.279516 -0.22663,0.02672 -0.32804,0.08976 -0.32804,0.2039 0,0.04691 0.0168,0.09859 0.0374,0.114837 0.0205,0.01625 0.19193,0.0373 0.38085,0.04679 0.30475,0.01531 0.34942,0.02456 0.39594,0.08202 0.11359,0.140274 0.0359,0.39858 -0.16452,0.547059 -0.10559,0.07822 -0.41312,0.09885 -0.55015,0.03691 z m 0.54175,-0.07681 c 0.0919,-0.0568 0.1656,-0.169176 0.1656,-0.252521 0,-0.07356 -0.0734,-0.09877 -0.34461,-0.118376 -0.32913,-0.0238 -0.38071,0.0013 -0.38071,0.185435 0,0.200507 0.10772,0.284265 0.33326,0.259122 0.072,-0.008 0.17389,-0.04117 0.22646,-0.07366 z m -0.15424,-1.106421 c 0.0395,-0.151767 0.0109,-0.566836 -0.0414,-0.599942 -0.0638,-0.04039 -0.13715,-0.03289 -0.18942,0.01937 -0.0362,0.03625 -0.0469,0.113231 -0.0469,0.337671 0,0.322171 0.022,0.370374 0.16248,0.356308 0.0727,-0.0073 0.0928,-0.02708 0.11532,-0.113406 z m 23.18046,1.191827 c -0.19269,-0.07688 -0.24521,-0.268854 -0.10654,-0.389426 l 0.0734,-0.06379 -0.0734,-0.05771 c -0.0628,-0.04941 -0.0734,-0.08261 -0.0734,-0.230761 0,-0.147131 0.0118,-0.184849 0.0788,-0.25183 0.0433,-0.04333 0.0911,-0.07878 0.10611,-0.07878 0.015,0 -0.01,-0.04836 -0.0547,-0.107472 -0.0982,-0.128715 -0.11017,-0.329835 -0.0289,-0.485059 0.0917,-0.175239 0.36044,-0.232676 0.49956,-0.106776 0.0476,0.04304 0.0595,0.04149 0.14023,-0.0182 0.10113,-0.07477 0.19457,-0.06943 0.21025,0.01203 0.0154,0.08008 -0.0575,0.114704 -0.12088,0.05737 -0.0423,-0.0383 -0.061,-0.04028 -0.0972,-0.01029 -0.0347,0.02879 -0.0374,0.05083 -0.0122,0.09795 0.0179,0.03345 0.0268,0.140206 0.0198,0.237245 -0.0179,0.247875 -0.0985,0.325067 -0.37316,0.357507 -0.16406,0.01938 -0.21635,0.03892 -0.27059,0.101113 -0.15641,0.179342 -0.0717,0.23954 0.36778,0.261181 0.41576,0.02048 0.44761,0.0393 0.44431,0.262674 -0.003,0.183317 -0.0715,0.286722 -0.25241,0.379139 -0.14004,0.07156 -0.34583,0.08618 -0.47689,0.03389 z m 0.43268,-0.05273 c 0.13405,-0.06156 0.20797,-0.136138 0.23168,-0.233764 0.0286,-0.117664 -0.0336,-0.150048 -0.3278,-0.170759 -0.25158,-0.01771 -0.28068,-0.01413 -0.33618,0.04137 -0.073,0.07299 -0.0785,0.201398 -0.0127,0.295318 0.0914,0.130466 0.2545,0.155328 0.44504,0.06783 z m -0.0811,-1.358894 c 0.009,-0.345449 -0.0101,-0.40773 -0.12572,-0.40773 -0.11778,0 -0.13679,0.05412 -0.13679,0.389466 0,0.174764 0.01,0.327355 0.0213,0.339093 0.0117,0.01174 0.0689,0.01734 0.127,0.01245 l 0.10566,-0.0089 z m -28.58235,0.863364 c -0.0895,-0.06459 -0.13491,-0.238587 -0.098,-0.375627 0.0512,-0.19004 0.2194,-0.29782 0.46486,-0.29782 h 0.13252 V 76.88918 c 0,-0.199216 -0.01,-0.249018 -0.0598,-0.298823 -0.0659,-0.06593 -0.15245,-0.07624 -0.2412,-0.02874 -0.0479,0.02564 -0.0547,0.05132 -0.0393,0.147945 0.0172,0.107367 0.0124,0.118486 -0.0579,0.136141 -0.10239,0.0257 -0.13975,-0.0025 -0.13975,-0.105527 0,-0.185285 0.30371,-0.291365 0.55712,-0.194588 0.1984,0.07577 0.21982,0.147021 0.21982,0.731105 0,0.492479 0.0127,0.540374 0.11729,0.441724 0.0319,-0.03015 0.037,-0.02871 0.026,0.0075 -0.0418,0.137704 -0.29686,0.148907 -0.35755,0.0157 l -0.0329,-0.07229 -0.0994,0.07581 c -0.12581,0.09596 -0.302,0.1214 -0.39183,0.05658 z m 0.44703,-0.19786 c 0.0599,-0.116993 0.0695,-0.356792 0.0165,-0.409846 -0.0568,-0.0568 -0.16288,-0.04197 -0.25276,0.03534 -0.0725,0.0624 -0.0828,0.09238 -0.0828,0.242564 0,0.141947 0.0116,0.180762 0.0676,0.22612 0.0901,0.073 0.1838,0.03792 0.25143,-0.09418 z m 7.9861,0.212918 c -0.18807,-0.07831 -0.32393,-0.345168 -0.32303,-0.634543 0.001,-0.336882 0.17873,-0.624631 0.41281,-0.668546 0.21678,-0.04067 0.44741,0.180929 0.46859,0.450231 l 0.009,0.11953 -0.3256,0.0085 -0.3256,0.0085 0.0179,0.253375 c 0.022,0.311894 0.0636,0.405719 0.20038,0.452535 l 0.10423,0.03566 -0.0896,-2.99e-4 c -0.0493,0 -0.11654,-0.01141 -0.14942,-0.02509 z m 0.30758,-0.944319 c 0.007,-0.147672 -0.003,-0.195944 -0.0545,-0.26147 -0.12837,-0.163185 -0.25644,-0.08383 -0.29982,0.185778 -0.0424,0.263315 -0.0337,0.276565 0.17334,0.265774 l 0.17219,-0.009 z m 2.52167,0.922735 c -0.18936,-0.09331 -0.33028,-0.351348 -0.33276,-0.609305 -0.003,-0.309419 0.20356,-0.629322 0.43422,-0.672595 0.24744,-0.04642 0.51851,0.216316 0.56874,0.551249 0.0424,0.28281 -0.11378,0.630566 -0.32909,0.732736 -0.12758,0.06054 -0.2151,0.06001 -0.34111,-0.0021 z m 0.30693,-0.05015 c 0.0539,-0.05389 0.0757,-0.118591 0.0924,-0.274392 0.0313,-0.292001 -9.3e-4,-0.747949 -0.0591,-0.836715 -0.10658,-0.162658 -0.31669,-0.107507 -0.3738,0.09811 -0.0393,0.141634 -0.0411,0.736863 -0.003,0.871187 0.0608,0.211959 0.21089,0.274004 0.34308,0.14181 z m 2.40395,0.03314 c -0.30012,-0.198826 -0.35893,-0.779628 -0.10956,-1.082148 0.17065,-0.207034 0.36512,-0.242516 0.54663,-0.09974 0.099,0.0779 0.19196,0.273044 0.19285,0.404974 l 6.6e-4,0.09712 h -0.31376 -0.31377 l 0.002,0.231588 c 0.002,0.316768 0.045,0.431199 0.17761,0.476432 l 0.10458,0.03566 -0.0927,0.0017 c -0.051,9.27e-4 -0.13839,-0.02859 -0.19423,-0.06558 z m 0.3747,-0.787529 c 0.0292,-0.116362 -0.0135,-0.340901 -0.0768,-0.404257 -0.14333,-0.143328 -0.2732,-0.02007 -0.28988,0.275129 l -0.0117,0.206981 h 0.17942 c 0.1684,0 0.18063,-0.0048 0.19897,-0.07785 z m 0.68176,0.807185 c -0.0783,-0.0399 -0.10572,-0.04226 -0.14194,-0.0122 -0.0391,0.03245 -0.0449,0.01344 -0.0449,-0.147469 0,-0.189783 0.0394,-0.222564 0.0746,-0.06213 0.0249,0.113416 0.17424,0.239525 0.28362,0.239525 0.11478,0 0.23943,-0.148383 0.23943,-0.285012 0,-0.126599 -0.0809,-0.20617 -0.25397,-0.249744 -0.18958,-0.04774 -0.30656,-0.158183 -0.32909,-0.310696 -0.0283,-0.19145 0.0367,-0.352119 0.17177,-0.424503 0.10523,-0.05641 0.11867,-0.05711 0.24235,-0.01263 0.11921,0.04287 0.13382,0.04287 0.16312,0 0.025,-0.03655 0.0326,-0.01192 0.0339,0.109752 0.002,0.179632 -0.0237,0.197047 -0.0879,0.05944 -0.10422,-0.223583 -0.33902,-0.224817 -0.41636,-0.0022 -0.0384,0.110637 -0.0377,0.131154 0.007,0.199925 0.0326,0.04981 0.10433,0.09271 0.20481,0.122548 0.085,0.02525 0.18539,0.06609 0.22303,0.09075 0.14316,0.0938 0.16119,0.479301 0.0296,0.632313 -0.0828,0.09624 -0.2662,0.120286 -0.3995,0.05237 z m 1.93139,0.0082 c -0.22641,-0.08465 -0.4184,-0.286431 -0.49982,-0.525311 -0.0565,-0.165635 -0.0423,-0.506016 0.0274,-0.660424 0.0734,-0.162527 0.24181,-0.343115 0.39246,-0.420884 0.15186,-0.0784 0.45217,-0.07811 0.58116,5.38e-4 0.0932,0.05682 0.095,0.05682 0.14658,0 0.0287,-0.03171 0.0635,-0.05766 0.0774,-0.05766 0.0139,0 0.0253,0.107577 0.0253,0.239059 0,0.131482 -0.0101,0.239011 -0.0224,0.238951 -0.0123,0 -0.056,-0.07065 -0.0971,-0.156882 -0.0957,-0.200914 -0.22655,-0.291245 -0.42174,-0.291245 -0.11718,0 -0.16285,0.01659 -0.24558,0.08923 -0.14781,0.129779 -0.1769,0.27034 -0.16474,0.795959 0.009,0.399365 0.0172,0.455613 0.0778,0.553116 0.0371,0.0597 0.10761,0.125159 0.15664,0.145467 0.12021,0.04979 0.30448,0.04392 0.41497,-0.01321 0.0932,-0.04818 0.24242,-0.267034 0.24242,-0.35548 0,-0.02732 0.0134,-0.04967 0.0299,-0.04967 0.0175,0 0.0299,0.101821 0.0299,0.245699 v 0.245699 l -0.0633,-0.06331 -0.0633,-0.06331 -0.0994,0.05866 c -0.12809,0.07558 -0.38408,0.0976 -0.52446,0.04512 z m 1.19582,-0.02428 c -0.29182,-0.169245 -0.39828,-0.63974 -0.22192,-0.980778 0.0631,-0.121932 0.23967,-0.264794 0.35383,-0.28621 0.39588,-0.07427 0.69858,0.538931 0.48725,0.987062 -0.14599,0.309584 -0.38315,0.416805 -0.61916,0.279926 z m 0.32928,-0.0303 c 0.0799,-0.08573 0.10031,-0.247549 0.0876,-0.693671 -0.01,-0.346101 -0.0158,-0.378496 -0.083,-0.45004 -0.0849,-0.09032 -0.17849,-0.09841 -0.2711,-0.02343 -0.15155,0.122718 -0.15136,1.055035 3e-4,1.177795 0.0885,0.07168 0.19347,0.06747 0.26626,-0.01066 z m 2.70669,0.06535 c -0.18697,-0.07784 -0.32157,-0.342909 -0.32215,-0.634397 -6.9e-4,-0.343982 0.18626,-0.632711 0.43392,-0.670141 0.20758,-0.03137 0.42548,0.18908 0.44645,0.45168 l 0.01,0.11953 -0.32526,0.0085 -0.32525,0.0085 0.021,0.260418 c 0.0257,0.318639 0.0613,0.399217 0.19654,0.445498 l 0.10424,0.03566 -0.0897,-2.99e-4 c -0.0493,0 -0.11654,-0.01141 -0.14941,-0.02509 z m 0.31376,-0.938474 c 0,-0.278366 -0.12814,-0.420429 -0.27944,-0.309796 -0.0528,0.03862 -0.12692,0.416993 -0.0926,0.472598 0.009,0.01507 0.0968,0.0274 0.19446,0.0274 h 0.17753 z m 2.86872,0.933573 c -0.28287,-0.112797 -0.44717,-0.593078 -0.31285,-0.914544 0.16031,-0.383665 0.46245,-0.495888 0.72188,-0.268116 0.28204,0.247638 0.31053,0.727602 0.0617,1.040626 -0.063,0.07928 -0.24117,0.175514 -0.32138,0.173602 -0.0411,-9.87e-4 -0.10832,-0.01519 -0.1494,-0.03157 z m 0.26922,-0.0503 c 0.15259,-0.123555 0.15209,-1.053804 -6.2e-4,-1.177469 -0.0924,-0.0748 -0.18605,-0.06664 -0.27086,0.02362 -0.0672,0.07154 -0.0732,0.103939 -0.083,0.45004 -0.006,0.205121 -0.002,0.430676 0.009,0.501237 0.0341,0.227465 0.1972,0.322978 0.34589,0.202576 z m 5.96871,0.0648 c -0.0288,-0.0084 -0.0549,-0.01756 -0.0582,-0.02046 -0.003,-0.0029 -0.0133,-0.280834 -0.0224,-0.617623 l -0.0165,-0.61234 -0.0896,-0.01774 -0.0897,-0.01774 0.0897,-0.01239 c 0.0788,-0.01089 0.0907,-0.02558 0.0987,-0.121032 0.008,-0.09456 0.021,-0.111022 0.10085,-0.127 0.14192,-0.02839 0.14407,-0.02668 0.14407,0.114309 0,0.1313 0.001,0.132788 0.11206,0.144388 l 0.11206,0.01172 -0.11269,0.005 -0.11269,0.005 0.008,0.590176 0.008,0.590176 0.0793,0.0092 c 0.0554,0.0064 0.0937,-0.01133 0.127,-0.05894 0.0343,-0.04894 0.0477,-0.05493 0.0477,-0.02128 0,0.113658 -0.25309,0.206705 -0.42582,0.156554 z m -32.74359,-0.04068 c 0,-0.01644 0.0538,-0.02988 0.11953,-0.02988 h 0.11953 v -0.775223 -0.775223 l -0.127,-0.01144 c -0.0699,-0.0063 0.017,-0.01379 0.19295,-0.01666 l 0.31996,-0.0052 0.0888,0.291353 c 0.0488,0.160244 0.12452,0.410108 0.16818,0.555253 0.0437,0.145147 0.0883,0.25521 0.0992,0.24459 0.0109,-0.01062 0.0943,-0.257126 0.1853,-0.547785 l 0.16544,-0.52847 0.31268,-0.0028 c 0.17197,-0.0016 0.25553,0.0026 0.18568,0.0092 l -0.127,0.012 v 0.775223 0.775223 h 0.11953 c 0.0657,0 0.11953,0.01345 0.11953,0.02988 0,0.01839 -0.14942,0.02988 -0.38847,0.02988 -0.23906,0 -0.38847,-0.01149 -0.38847,-0.02988 0,-0.01644 0.0538,-0.02988 0.11952,-0.02988 h 0.11953 v -0.766982 c 0,-0.421837 -0.005,-0.761375 -0.0115,-0.754529 -0.006,0.0068 -0.12314,0.365437 -0.25955,0.796864 -0.13642,0.431426 -0.26234,0.784211 -0.27983,0.783966 -0.0175,-2.99e-4 -0.13832,-0.34651 -0.26852,-0.76947 -0.13019,-0.422964 -0.24785,-0.781801 -0.26147,-0.797414 -0.0136,-0.01562 -0.0248,0.317195 -0.0248,0.739582 v 0.767977 h 0.11953 c 0.0657,0 0.11953,0.01345 0.11953,0.02988 0,0.01771 -0.10957,0.02988 -0.26895,0.02988 -0.15937,0 -0.26894,-0.01217 -0.26894,-0.02988 z m 3.19742,0 c 0,-0.01644 0.0336,-0.02988 0.0747,-0.02988 h 0.0747 v -0.776942 -0.776941 h -0.0946 c -0.15017,0 -0.0875,-0.02067 0.13198,-0.04352 l 0.20171,-0.021 v 0.809202 0.809203 h 0.0747 c 0.0411,0 0.0747,0.01345 0.0747,0.02988 0,0.01771 -0.10957,0.02988 -0.26894,0.02988 -0.15938,0 -0.26894,-0.01217 -0.26894,-0.02988 z m 0.68729,0 c 0,-0.01644 0.0269,-0.02988 0.0598,-0.02988 0.0795,0 0.0764,-0.0168 -0.0386,-0.209177 -0.054,-0.09039 -0.13396,-0.226078 -0.17768,-0.301519 l -0.0795,-0.137166 0.19423,-0.266245 0.19423,-0.266246 -0.11359,-0.01817 c -0.07,-0.0112 -0.0104,-0.01787 0.15534,-0.01739 0.14792,4.18e-4 0.21865,0.0061 0.15718,0.01249 -0.10116,0.01059 -0.12455,0.03147 -0.24653,0.220026 -0.0741,0.114575 -0.13476,0.213907 -0.13476,0.220735 0,0.05166 0.46148,0.762664 0.49501,0.762664 0.0236,0 0.0429,0.01345 0.0429,0.02988 0,0.01758 -0.10459,0.02988 -0.254,0.02988 -0.14941,0 -0.254,-0.0123 -0.254,-0.02988 z m 0.62753,0 c 0,-0.01644 0.0403,-0.02988 0.0896,-0.02988 h 0.0896 v -0.597647 -0.597647 h -0.0946 c -0.15018,0 -0.0875,-0.02068 0.13198,-0.04352 l 0.2017,-0.021 v 0.629908 0.629908 h 0.0896 c 0.0493,0 0.0897,0.01345 0.0897,0.02988 0,0.01793 -0.11953,0.02988 -0.29883,0.02988 -0.17929,0 -0.29882,-0.01195 -0.29882,-0.02988 z m 0.71718,0 c 0,-0.01644 0.0406,-0.02988 0.0903,-0.02988 h 0.0903 l -0.008,-0.589905 -0.008,-0.589904 -0.0897,-0.01658 c -0.0759,-0.01404 -0.0645,-0.01977 0.0747,-0.03737 0.2696,-0.0341 0.26894,-0.03431 0.26894,0.08765 v 0.108951 l 0.0712,-0.07682 c 0.0952,-0.102765 0.29242,-0.162007 0.39049,-0.117321 0.15786,0.07192 0.17992,0.154337 0.19122,0.71446 l 0.0104,0.516834 h 0.0718 c 0.0395,0 0.0717,0.01345 0.0717,0.02988 0,0.01771 -0.10957,0.02988 -0.26894,0.02988 -0.15937,0 -0.26894,-0.01217 -0.26894,-0.02988 0,-0.01644 0.0336,-0.02988 0.0747,-0.02988 h 0.0747 v -0.488601 c 0,-0.564047 -0.0246,-0.676811 -0.1477,-0.676811 -0.0954,0 -0.16028,0.06263 -0.22469,0.216781 -0.034,0.08126 -0.046,0.219576 -0.046,0.529318 v 0.419313 h 0.0747 c 0.0411,0 0.0747,0.01345 0.0747,0.02988 0,0.01783 -0.11455,0.02988 -0.28388,0.02988 -0.16934,0 -0.28388,-0.01206 -0.28388,-0.02988 z m 3.048,0 c 0,-0.01644 0.0607,-0.02988 0.13497,-0.02988 h 0.13498 l -0.008,-0.769471 -0.008,-0.769471 -0.13448,-0.01847 c -0.0797,-0.01095 -0.002,-0.01703 0.1907,-0.01494 l 0.32516,0.0035 0.16032,0.535289 c 0.0882,0.294407 0.16678,0.54174 0.17466,0.549629 0.019,0.019 0.0257,2.99e-4 0.20701,-0.582948 l 0.15609,-0.50197 0.31192,-0.0028 c 0.17155,-0.0016 0.25476,0.0026 0.18491,0.0092 l -0.127,0.012 v 0.775223 0.775223 h 0.11953 c 0.0657,0 0.11953,0.01345 0.11953,0.02988 0,0.01839 -0.14941,0.02988 -0.38847,0.02988 -0.23906,0 -0.38847,-0.01149 -0.38847,-0.02988 0,-0.01644 0.0538,-0.02988 0.11953,-0.02988 h 0.11953 l -0.003,-0.769471 -0.003,-0.769471 -0.1491,0.463177 c -0.082,0.254747 -0.19726,0.614874 -0.25613,0.800285 -0.0611,0.192514 -0.12103,0.33245 -0.13969,0.326253 -0.018,-0.006 -0.14032,-0.354955 -0.27188,-0.775519 -0.13155,-0.420564 -0.24921,-0.774688 -0.26147,-0.78694 -0.0122,-0.01225 -0.0223,0.322867 -0.0223,0.744704 v 0.766982 h 0.13447 c 0.074,0 0.13447,0.01345 0.13447,0.02988 0,0.01783 -0.11455,0.02988 -0.28388,0.02988 -0.16934,0 -0.28389,-0.01206 -0.28389,-0.02988 z m 2.89858,0 c 0,-0.01644 0.0403,-0.02988 0.0897,-0.02988 h 0.0896 v -0.597647 -0.597647 h -0.0946 c -0.15017,0 -0.0875,-0.02068 0.13198,-0.04352 l 0.20171,-0.021 v 0.121468 0.121469 l 0.10229,-0.111619 c 0.0902,-0.09847 0.11878,-0.11162 0.24233,-0.11162 0.12233,0 0.15062,0.01267 0.22371,0.100213 0.0815,0.09763 0.0845,0.09861 0.11714,0.03766 0.041,-0.07656 0.18196,-0.152818 0.28255,-0.152818 0.041,0 0.10925,0.03026 0.15169,0.06723 0.0996,0.08678 0.13494,0.297757 0.13517,0.806824 l 1.7e-4,0.381 h 0.0747 c 0.0411,0 0.0747,0.01345 0.0747,0.02988 0,0.01771 -0.10957,0.02988 -0.26894,0.02988 -0.15938,0 -0.26895,-0.01217 -0.26895,-0.02988 0,-0.01644 0.0269,-0.02988 0.0598,-0.02988 0.0577,0 0.0598,-0.01992 0.0598,-0.566713 0,-0.509366 -0.005,-0.569486 -0.0523,-0.594118 -0.0866,-0.04537 -0.18507,0.01512 -0.24711,0.151796 -0.0487,0.107385 -0.058,0.197053 -0.0585,0.56827 -6.3e-4,0.421063 0.002,0.440765 0.0591,0.440765 0.0329,0 0.0598,0.01345 0.0598,0.02988 0,0.01743 -0.0996,0.02988 -0.23905,0.02988 -0.13946,0 -0.23906,-0.01245 -0.23906,-0.02988 0,-0.01644 0.028,-0.02988 0.0621,-0.02988 0.061,0 0.062,-0.0097 0.0523,-0.555277 -0.009,-0.508454 -0.0147,-0.558845 -0.0677,-0.597573 -0.0737,-0.0538 -0.15384,-0.0071 -0.24093,0.140286 -0.0512,0.08668 -0.0612,0.166361 -0.0699,0.556858 l -0.0101,0.455706 h 0.0774 c 0.0426,0 0.0774,0.01345 0.0774,0.02988 0,0.01783 -0.11455,0.02988 -0.28388,0.02988 -0.16934,0 -0.28389,-0.01206 -0.28389,-0.02988 z m 2.98824,0 c 0,-0.01644 0.0269,-0.02988 0.0598,-0.02988 0.0578,0 0.0598,-0.01992 0.0598,-0.597647 v -0.597647 l -0.0822,-0.0037 c -0.0565,-0.0026 -0.0403,-0.0112 0.0523,-0.02766 0.26298,-0.0468 0.26894,-0.04444 0.26894,0.106112 0,0.157161 0.0265,0.169 0.0999,0.04467 0.0573,-0.09705 0.18888,-0.179142 0.28706,-0.179142 0.0678,0 0.18104,0.09851 0.18032,0.156882 -7.2e-4,0.05869 -0.0388,0.102284 -0.10845,0.123988 -0.0835,0.02605 -0.16911,-0.05578 -0.14331,-0.137052 0.0155,-0.04883 0.007,-0.05734 -0.0513,-0.04914 -0.0497,0.007 -0.0917,0.0532 -0.14473,0.159327 -0.0672,0.134309 -0.0757,0.192451 -0.085,0.575235 l -0.0103,0.425824 h 0.10739 c 0.0591,0 0.10739,0.01345 0.10739,0.02988 0,0.01793 -0.11953,0.02988 -0.29883,0.02988 -0.17929,0 -0.29882,-0.01195 -0.29882,-0.02988 z m 1.016,0 c 0,-0.01644 0.0403,-0.02988 0.0897,-0.02988 h 0.0896 v -0.597647 -0.597647 h -0.0946 c -0.15017,0 -0.0875,-0.02068 0.13199,-0.04352 l 0.2017,-0.021 v 0.629908 0.629908 h 0.0897 c 0.0493,0 0.0897,0.01345 0.0897,0.02988 0,0.01793 -0.11953,0.02988 -0.29883,0.02988 -0.17929,0 -0.29882,-0.01195 -0.29882,-0.02988 z m 1.22517,0.01814 c 0,-0.0065 0.0209,-0.01975 0.0464,-0.02954 0.0266,-0.0102 0.0386,-0.0052 0.0281,0.01175 -0.0175,0.02839 -0.0745,0.042 -0.0745,0.01779 z m 4.63177,-0.01814 c 0,-0.01644 0.0403,-0.02988 0.0897,-0.02988 h 0.0896 v -0.597647 -0.597647 h -0.0946 c -0.15017,0 -0.0875,-0.02068 0.13199,-0.04352 l 0.2017,-0.021 8.1e-4,0.129378 8.1e-4,0.129379 0.0508,-0.08201 c 0.11812,-0.190509 0.39746,-0.218279 0.52058,-0.05176 0.0631,0.08537 0.0658,0.0861 0.10628,0.02833 0.0535,-0.07644 0.19372,-0.148572 0.28873,-0.148572 0.041,0 0.11226,0.03243 0.15837,0.07206 l 0.0838,0.07205 0.009,0.555475 0.009,0.555474 h 0.0878 c 0.0483,0 0.0878,0.01345 0.0878,0.02988 0,0.01771 -0.10957,0.02988 -0.26894,0.02988 -0.15938,0 -0.26895,-0.01217 -0.26895,-0.02988 0,-0.01644 0.0269,-0.02988 0.0598,-0.02988 0.0577,0 0.0598,-0.01992 0.0598,-0.566713 0,-0.516684 -0.005,-0.569274 -0.0542,-0.595714 -0.0788,-0.04217 -0.18966,0.02241 -0.25206,0.146842 -0.0429,0.08553 -0.0523,0.185734 -0.0523,0.559879 0,0.435801 0.003,0.455706 0.0597,0.455706 0.0329,0 0.0598,0.01345 0.0598,0.02988 0,0.01758 -0.10458,0.02988 -0.254,0.02988 -0.14941,0 -0.254,-0.0123 -0.254,-0.02988 0,-0.01644 0.0349,-0.02988 0.0776,-0.02988 h 0.0776 l -0.0103,-0.555256 c -0.009,-0.508469 -0.0152,-0.55883 -0.0683,-0.597647 -0.0789,-0.0577 -0.0964,-0.05426 -0.17378,0.03434 -0.11371,0.130147 -0.13709,0.246246 -0.13947,0.692742 l -0.002,0.425824 h 0.0747 c 0.0411,0 0.0747,0.01345 0.0747,0.02988 0,0.01783 -0.11454,0.02988 -0.28388,0.02988 -0.16933,0 -0.28388,-0.01206 -0.28388,-0.02988 z m 4.00423,0 c 0,-0.01644 0.0538,-0.02988 0.11953,-0.02988 h 0.11953 v -0.776942 -0.776941 h -0.0728 c -0.20091,0 -0.35634,0.126188 -0.40913,0.332149 -0.0206,0.08028 -0.0483,0.145969 -0.0616,0.145969 -0.0285,0 -0.0315,-0.235751 -0.005,-0.395941 l 0.0185,-0.112059 h 0.67913 0.67913 l 0.0192,0.183678 c 0.0263,0.251173 0.0242,0.324322 -0.009,0.324322 -0.0157,0 -0.0371,-0.04548 -0.0475,-0.101065 -0.0418,-0.222758 -0.21205,-0.377053 -0.41608,-0.377053 h -0.0757 v 0.776941 0.776942 h 0.11953 c 0.0657,0 0.11953,0.01345 0.11953,0.02988 0,0.01839 -0.14942,0.02988 -0.38848,0.02988 -0.23905,0 -0.38847,-0.01149 -0.38847,-0.02988 z m 2.89859,0 c 0,-0.01644 0.0538,-0.02988 0.11953,-0.02988 h 0.11953 v -0.775223 -0.775223 l -0.127,-0.01144 c -0.0699,-0.0063 0.0613,-0.01136 0.29135,-0.01127 0.2301,0 0.35448,0.0052 0.27642,0.01136 l -0.14195,0.01119 v 0.775304 0.775304 h 0.24192 c 0.34273,0 0.46864,-0.08852 0.52067,-0.366059 0.0329,-0.175284 0.0856,-0.138131 0.0636,0.04482 -0.0104,0.08629 -0.019,0.207309 -0.0191,0.268942 l -3e-4,0.112058 h -0.67235 c -0.42832,0 -0.67236,-0.01085 -0.67236,-0.02988 z m 1.46424,0 c 0,-0.01644 0.0471,-0.02988 0.10459,-0.02988 h 0.10458 v -0.597647 -0.597647 l -0.0971,-0.0037 c -0.085,-0.0033 -0.0803,-0.0067 0.0374,-0.02766 0.074,-0.01316 0.17145,-0.02492 0.21665,-0.02614 l 0.0822,-0.0022 v 0.627529 0.62753 h 0.0897 c 0.0493,0 0.0897,0.01345 0.0897,0.02988 0,0.01803 -0.12451,0.02988 -0.31377,0.02988 -0.18925,0 -0.31376,-0.01186 -0.31376,-0.02988 z m 1.82282,0 c 0,-0.01644 0.0403,-0.02988 0.0896,-0.02988 h 0.0897 v -0.776942 -0.776941 l -0.0971,-0.0037 c -0.085,-0.0033 -0.0803,-0.0067 0.0374,-0.02766 0.074,-0.01316 0.17145,-0.02492 0.21665,-0.02614 l 0.0822,-0.0022 v 0.301115 0.301119 l 0.0769,-0.0914 c 0.10082,-0.11981 0.27574,-0.17433 0.39751,-0.123895 0.14951,0.06193 0.183,0.199038 0.183,0.749196 v 0.477514 h 0.0896 c 0.0493,0 0.0897,0.01345 0.0897,0.02988 0,0.01783 -0.11455,0.02988 -0.28388,0.02988 -0.16934,0 -0.28388,-0.01206 -0.28388,-0.02988 0,-0.01644 0.0336,-0.02988 0.0747,-0.02988 h 0.0747 v -0.506055 c 0,-0.508666 -0.0189,-0.637274 -0.098,-0.667643 -0.0722,-0.02769 -0.17728,0.047 -0.24293,0.172639 -0.0535,0.10229 -0.0639,0.183098 -0.0721,0.560294 l -0.01,0.440765 h 0.0769 c 0.0423,0 0.0769,0.01345 0.0769,0.02988 0,0.01783 -0.11455,0.02988 -0.28389,0.02988 -0.16933,0 -0.28388,-0.01206 -0.28388,-0.02988 z m -20.26629,-0.113789 c 0.0504,-0.0708 0.1004,-0.168294 0.11103,-0.216647 0.0106,-0.04836 0.0309,-0.08792 0.045,-0.08792 0.052,0 -0.0659,0.263013 -0.15538,0.346812 l -0.0924,0.08648 z m 12.74428,0.03026 c 0.0438,-0.05416 0.0957,-0.151647 0.11512,-0.216647 0.0195,-0.065 0.0459,-0.118182 0.0588,-0.118182 0.051,0 -0.0711,0.265624 -0.15947,0.346812 l -0.0941,0.08648 z m -7.18011,0.0395 c 0,-0.0118 0.026,-0.05797 0.0578,-0.102598 0.0318,-0.04463 0.0669,-0.117428 0.078,-0.161777 0.0111,-0.04435 0.0336,-0.08892 0.05,-0.09904 0.0628,-0.0388 -0.0727,0.290965 -0.14373,0.349955 -0.0231,0.01921 -0.0421,0.02526 -0.0421,0.01346 z m -21.23141,-1.330688 c -1.31033,-0.08443 -2.2775,-0.503099 -2.732,-1.18263 -0.36232,-0.541707 -0.39026,-1.172819 -0.0806,-1.820424 0.49122,-1.027303 1.75048,-1.733593 3.1228,-1.751501 0.31038,-0.0041 0.45179,0.02563 0.45179,0.09482 0,0.05138 -0.12488,0.07862 -0.44823,0.09775 -1.07494,0.06359 -2.01837,0.683374 -2.44761,1.607964 -0.26238,0.565168 -0.27894,1.057384 -0.0516,1.534734 0.33609,0.705818 1.17016,1.097878 2.4279,1.141252 0.71933,0.02481 1.27569,-0.05397 1.96889,-0.27877 0.29458,-0.09553 0.95578,-0.412092 1.18927,-0.569378 0.54621,-0.367947 0.94128,-0.845605 1.09991,-1.329848 0.10132,-0.309268 0.10282,-0.844371 0.003,-1.132972 -0.15433,-0.447023 -0.45149,-0.767763 -1.02101,-1.102047 -0.23476,-0.13779 -0.65203,-0.319903 -1.30123,-0.567906 -1.05814,-0.404228 -1.56435,-0.679222 -1.88667,-1.024929 -0.31145,-0.33405 -0.42959,-0.640135 -0.42869,-1.11068 9.3e-4,-0.483431 0.12288,-0.865743 0.39972,-1.253068 0.50955,-0.712925 1.50495,-1.17514 2.6556,-1.233128 0.87569,-0.04413 1.64051,0.166804 2.07994,0.57364 0.55268,0.511678 0.46071,1.224154 -0.21438,1.660867 -0.17824,0.115301 -0.49615,0.232534 -0.81257,0.299648 -0.25892,0.05492 -1.10969,0.04743 -1.37836,-0.01213 -0.47921,-0.106233 -0.7672,-0.367453 -0.67963,-0.616456 0.0417,-0.118648 0.12029,-0.09615 0.19725,0.05649 0.12887,0.255608 0.52102,0.383878 1.06459,0.348226 0.5113,-0.03354 0.93414,-0.180303 1.1846,-0.411169 0.60345,-0.556237 0.24332,-1.370805 -0.70485,-1.594305 -0.25209,-0.05942 -0.80266,-0.05902 -1.0968,7.89e-4 -0.46884,0.09534 -0.91884,0.334549 -1.26105,0.67034 -0.52847,0.518561 -0.67123,1.205773 -0.37559,1.807883 0.24139,0.491617 0.74104,0.825128 1.80972,1.207965 0.23831,0.08537 0.58121,0.210178 0.762,0.277348 1.45739,0.541477 2.01939,1.170751 2.02279,2.264922 0.003,1.067819 -0.56663,1.930833 -1.69409,2.565209 -1.00235,0.563984 -2.48841,0.867607 -3.82494,0.781492 z m 9.43501,-0.06447 c -0.0649,-0.06489 -0.0439,-0.172606 0.0412,-0.211382 0.0692,-0.03151 0.0848,-0.02748 0.13526,0.03482 0.0501,0.06189 0.052,0.0781 0.0155,0.133395 -0.0492,0.07455 -0.14013,0.09499 -0.19195,0.04317 z m 10.66685,-0.0011 c -0.10392,-0.103922 0.0452,-0.297085 0.15749,-0.203936 0.0891,0.07398 0.0381,0.239794 -0.0738,0.239794 -0.0263,0 -0.064,-0.01614 -0.0837,-0.03586 z m 14.23366,-0.02314 c -0.05,-0.05525 -0.0503,-0.0638 -0.004,-0.134471 0.0568,-0.08669 0.1133,-0.09562 0.18041,-0.02851 0.0559,0.05593 0.0607,0.136494 0.0111,0.186126 -0.0529,0.05287 -0.12706,0.04371 -0.18756,-0.02314 z m -23.74706,-0.823301 c -0.13382,-0.07268 -0.18617,-0.26364 -0.16588,-0.605097 l 0.0173,-0.290603 -0.12062,0.230913 c -0.14611,0.279732 -0.31239,0.474535 -0.49835,0.583854 -0.18667,0.109734 -0.51952,0.116125 -0.71319,0.01369 -0.40031,-0.21172 -0.64588,-0.763701 -0.73361,-1.648977 l -0.0369,-0.372281 -0.12879,0.390497 c -0.47011,1.425329 -1.07411,2.011378 -1.59137,1.544063 -0.2921,-0.263894 -0.44355,-0.861894 -0.44539,-1.758657 -0.003,-1.527085 0.45717,-2.71883 1.19197,-3.086012 0.47772,-0.238718 1.04047,-0.185895 1.2178,0.11431 0.0291,0.04924 0.06,0.08538 0.0687,0.08033 0.009,-0.0051 0.094,-0.04691 0.18955,-0.09301 0.15424,-0.0744 0.20014,-0.08262 0.40851,-0.07316 0.12911,0.0059 0.24238,0.01829 0.25171,0.02762 0.009,0.0093 -0.0164,0.163918 -0.0571,0.343533 -0.18261,0.805772 -0.28408,1.681055 -0.28331,2.443919 10e-4,1.190937 0.23013,1.888268 0.59023,1.797889 0.1885,-0.04731 0.42658,-0.442701 0.64085,-1.064296 l 0.12778,-0.370702 -7.9e-4,-1.075765 c -7.4e-4,-0.985858 -0.0202,-1.330342 -0.091,-1.612638 -0.0152,-0.06065 0.009,-0.08361 0.20538,-0.191817 0.38048,-0.210029 0.52588,-0.205359 0.62578,0.0201 0.0575,0.129761 0.062,0.190925 0.0577,0.778425 -0.003,0.350679 -0.0135,0.651954 -0.0244,0.669499 -0.0112,0.01807 -0.006,0.02324 0.0126,0.01193 0.0178,-0.01099 0.0486,-0.07021 0.0685,-0.131617 0.067,-0.206472 0.28835,-0.61696 0.53559,-0.993172 0.39688,-0.603912 0.56764,-0.747059 0.89117,-0.747059 0.20552,0 0.34002,0.07323 0.43582,0.237261 0.09,0.154025 0.0937,0.499697 0.0153,1.391327 -0.0896,1.018146 -0.0983,2.279827 -0.0179,2.598166 0.0913,0.361544 0.25132,0.50353 0.46918,0.416363 0.21507,-0.08606 0.41351,-0.392669 0.57787,-0.892882 0.0643,-0.195574 0.0813,-0.31435 0.0938,-0.652974 0.0552,-1.499956 0.51481,-2.624657 1.23224,-3.015128 0.29936,-0.162934 0.70958,-0.216926 0.96458,-0.126956 0.0699,0.02465 0.13078,0.04482 0.13535,0.04482 0.005,0 0.0168,-0.144556 0.0271,-0.321235 0.0524,-0.897179 0.0806,-1.303238 0.10841,-1.561353 0.0655,-0.608349 0.28026,-1.247275 0.50554,-1.503855 0.15148,-0.172531 0.30792,-0.242569 0.53844,-0.24106 0.32172,0.0021 0.52621,0.147975 0.6477,0.462026 0.0722,0.186636 0.0724,0.949613 3.6e-4,1.342654 -0.17766,0.969298 -0.57582,2.169274 -1.0301,3.104548 l -0.16849,0.346863 6.7e-4,0.956236 c 8.2e-4,1.181796 0.0657,1.672312 0.25935,1.959935 0.26799,0.398111 0.63696,0.05767 0.93663,-0.864215 0.0847,-0.260694 0.1202,-0.33424 0.15745,-0.326549 0.0389,0.008 0.0465,0.04411 0.0399,0.188143 -0.018,0.390685 -0.25424,0.965827 -0.50521,1.230083 -0.34525,0.363528 -0.79653,0.408698 -1.11423,0.111527 -0.28681,-0.268281 -0.44156,-0.805374 -0.47121,-1.635506 -0.009,-0.25966 -0.0263,-0.461366 -0.0378,-0.448235 -0.0115,0.01313 -0.0704,0.178517 -0.13084,0.367523 -0.48231,1.508736 -1.15432,2.217889 -1.67146,1.763838 -0.12209,-0.107194 -0.24566,-0.354954 -0.30944,-0.620405 -0.0267,-0.111177 -0.0543,-0.22231 -0.0614,-0.246963 -0.007,-0.02501 -0.0427,0.02783 -0.0804,0.11953 -0.17253,0.41944 -0.36593,0.665193 -0.62939,0.799756 -0.21909,0.111903 -0.55748,0.129005 -0.74608,0.03771 -0.47264,-0.228803 -0.63389,-1.215638 -0.46643,-2.854523 0.0907,-0.888066 0.078,-1.163768 -0.06,-1.301823 -0.084,-0.08395 -0.13284,-0.07255 -0.28319,0.06605 -0.44898,0.413853 -0.88363,1.597136 -1.00276,2.729889 -0.0327,0.310651 -0.0222,0.881108 0.0216,1.172461 l 0.019,0.126579 -0.16076,0.07483 c -0.18037,0.08397 -0.33135,0.09398 -0.44948,0.02983 z m -3.01782,-1.014682 c 0.32366,-0.292411 0.63928,-1.267508 0.82446,-2.547194 0.0576,-0.398103 0.12557,-0.813604 0.15101,-0.923334 0.0427,-0.184199 0.0424,-0.203766 -0.004,-0.25495 -0.13999,-0.154689 -0.4509,-0.116477 -0.70345,0.08645 -0.48522,0.389892 -0.75118,1.089052 -0.82849,2.177989 -0.0341,0.48049 -0.002,1.043731 0.0721,1.267003 0.0547,0.164544 0.18939,0.298073 0.30078,0.298073 0.0406,0 0.12282,-0.04562 0.18749,-0.104041 z m 8.11755,0.04431 c 0.32378,-0.20011 0.78743,-1.44205 0.92594,-2.480265 0.0617,-0.462272 0.10604,-1.321339 0.0702,-1.359647 -0.0542,-0.058 -0.27936,-0.02657 -0.44142,0.06163 -0.20237,0.110144 -0.47391,0.406551 -0.60799,0.663674 -0.24092,0.461987 -0.4022,1.20337 -0.43051,1.979044 -0.0345,0.943894 0.13818,1.349144 0.48377,1.135559 z m 1.82098,-3.384206 c 0.21221,-0.534817 0.33469,-0.907251 0.46432,-1.411941 0.17144,-0.66747 0.22268,-1.030003 0.22385,-1.583765 8.9e-4,-0.42028 -0.006,-0.492328 -0.0588,-0.595588 -0.074,-0.145498 -0.14422,-0.193597 -0.21665,-0.148453 -0.0658,0.04101 -0.17766,0.233255 -0.2156,0.370512 -0.0924,0.334395 -0.2675,1.96879 -0.37369,3.488764 -0.009,0.135592 -0.006,0.24653 0.007,0.24653 0.0133,0 0.0896,-0.164727 0.1695,-0.366059 z m 2.21025,4.029779 c -0.0233,-0.06069 0.0394,-0.270089 0.10524,-0.35142 0.0519,-0.06412 0.0855,-0.07133 0.39555,-0.08501 0.18637,-0.0082 0.33736,-0.02166 0.33553,-0.02988 -0.0656,-0.295062 -0.0861,-0.664635 -0.0844,-1.524 0.002,-0.98235 0.0425,-1.624277 0.15146,-2.398712 0.0272,-0.193474 0.0429,-0.358395 0.0348,-0.366491 -0.0321,-0.03212 -0.40656,0.110415 -0.5565,0.21184 -0.0875,0.05921 -0.1783,0.100312 -0.2017,0.09133 -0.0597,-0.0229 -0.0552,-0.26642 0.007,-0.398215 0.0965,-0.203352 0.27322,-0.266308 0.86658,-0.308713 0.33078,-0.02364 0.47006,-0.02039 0.72512,0.0169 0.46093,0.06739 0.59956,0.118205 0.59958,0.21978 2e-5,0.04232 -0.0483,0.04864 -0.37191,0.04864 -0.2084,0 -0.38488,0.01314 -0.40137,0.02988 -0.0389,0.03947 -0.22506,0.9661 -0.30018,1.494118 -0.0994,0.698984 -0.12981,1.244507 -0.11261,2.022793 0.009,0.399512 0.025,0.76154 0.036,0.80451 0.0197,0.07733 0.0234,0.07828 0.36053,0.09316 0.36039,0.0159 0.44059,0.04512 0.42492,0.154805 -0.008,0.05813 -0.0303,0.06292 -0.32268,0.0703 -0.40149,0.01013 -0.39732,0.0084 -0.34227,0.140182 l 0.0443,0.1059 h -0.0881 c -0.12334,0 -0.23191,-0.04645 -0.31293,-0.13387 -0.0682,-0.07363 -0.0729,-0.07427 -0.32009,-0.04414 -0.28048,0.03419 -0.55215,0.103779 -0.5798,0.148519 -0.0263,0.04252 -0.0737,0.03625 -0.0923,-0.0122 z m 21.63776,-0.142001 c -0.23249,-0.08586 -0.36974,-0.257607 -0.47751,-0.597534 l -0.066,-0.208333 -0.0638,0.175009 c -0.18561,0.509066 -0.53565,0.73709 -0.86603,0.564157 -0.11493,-0.06016 -0.25145,-0.261802 -0.32291,-0.476961 l -0.0501,-0.150924 -0.0891,0.188546 c -0.049,0.103701 -0.14453,0.246213 -0.21231,0.31669 -0.3271,0.340133 -0.76975,0.186093 -0.93069,-0.32388 -0.0268,-0.0851 -0.0555,-0.174895 -0.0636,-0.199548 -0.009,-0.02592 -0.0377,0.02034 -0.0693,0.109704 -0.20493,0.580011 -0.66439,0.768643 -1.00627,0.41313 -0.18412,-0.191457 -0.24945,-0.394543 -0.32662,-1.015388 l -0.0185,-0.148909 -0.0968,0.28338 c -0.16746,0.490247 -0.39016,0.874585 -0.57182,0.986859 -0.0553,0.03415 -0.14774,0.05852 -0.2221,0.05852 -0.10671,0 -0.14331,-0.01686 -0.22527,-0.10376 -0.0538,-0.05707 -0.12061,-0.168005 -0.1484,-0.24653 -0.10074,-0.284539 -0.0891,-0.275667 -0.15774,-0.120566 -0.0955,0.215819 -0.20546,0.340904 -0.37336,0.424571 -0.2438,0.121493 -0.48554,0.085 -0.61125,-0.09228 -0.16368,-0.230818 -0.23506,-0.738725 -0.1863,-1.325674 0.0673,-0.809931 0.0716,-1.096643 0.0176,-1.179049 -0.0705,-0.107535 -0.14739,-0.09459 -0.26678,0.04488 -0.38846,0.453824 -0.68742,1.628494 -0.59524,2.338806 0.0264,0.203299 0.0263,0.203645 -0.0566,0.24653 -0.13735,0.07103 -0.28104,0.05542 -0.35497,-0.03857 -0.0541,-0.06877 -0.0626,-0.113167 -0.0545,-0.283951 0.005,-0.111338 0.007,-0.202405 0.003,-0.202369 -0.004,0 -0.0341,0.05348 -0.0674,0.118768 -0.21251,0.416542 -0.58783,0.557535 -0.85641,0.321722 -0.11144,-0.09785 -0.2291,-0.304675 -0.26329,-0.462833 -0.0115,-0.05342 -0.0307,-0.09712 -0.0426,-0.09712 -0.0119,0 -0.0449,0.06387 -0.0733,0.141942 -0.0732,0.201003 -0.23265,0.406137 -0.36766,0.473028 -0.0759,0.03763 -0.17848,0.05721 -0.29995,0.05728 -0.23379,0 -0.32176,-0.05946 -0.44296,-0.300055 l -0.0897,-0.177958 v -1.060824 c 0,-1.085696 -0.0107,-1.195294 -0.1171,-1.195294 -0.12476,0 -0.39902,0.453737 -0.53512,0.885295 -0.15716,0.498321 -0.22505,1.169087 -0.15918,1.572529 l 0.0232,0.141941 h -0.12965 c -0.17426,0 -0.24591,-0.0578 -0.32447,-0.261728 -0.077,-0.199769 -0.09,-0.609934 -0.0477,-1.501331 0.0292,-0.613727 4.8e-4,-0.785116 -0.13403,-0.800952 -0.0565,-0.0067 -0.0986,0.01652 -0.15778,0.08689 -0.20283,0.241058 -0.45215,0.887587 -0.54357,1.409617 -0.0493,0.281569 -0.0668,0.939426 -0.0282,1.061002 0.0182,0.05737 0.006,0.07409 -0.0844,0.111695 -0.1671,0.06982 -0.30655,0.05795 -0.36487,-0.03105 -0.0405,-0.0618 -0.0457,-0.119317 -0.0294,-0.321235 l 0.0199,-0.245962 -0.072,0.151366 c -0.0854,0.179533 -0.23533,0.357737 -0.35172,0.417926 -0.10752,0.0556 -0.33481,0.0556 -0.44233,0 -0.21027,-0.108733 -0.35705,-0.387213 -0.43005,-0.815872 l -0.0394,-0.231538 -0.0697,0.209177 c -0.19564,0.587018 -0.45889,0.881529 -0.78795,0.881529 -0.1303,0 -0.15995,-0.01287 -0.25996,-0.112883 -0.11076,-0.110759 -0.20879,-0.347102 -0.20879,-0.503366 0,-0.126061 -0.0483,-0.0981 -0.10169,0.05881 -0.12473,0.366976 -0.36179,0.557443 -0.69378,0.557443 -0.26643,0 -0.41869,-0.105798 -0.56067,-0.3896 -0.0594,-0.118842 -0.1081,-0.241165 -0.1081,-0.271828 0,-0.09927 -0.0445,-0.05925 -0.0963,0.08662 -0.0704,0.198156 -0.20988,0.396922 -0.34,0.484426 -0.15751,0.105924 -0.46102,0.121654 -0.63498,0.03291 -0.3857,-0.196766 -0.50596,-0.749072 -0.47223,-2.168756 0.0471,-1.981836 0.29383,-3.041354 0.76731,-3.294858 0.23488,-0.125754 0.49666,-0.05141 0.58805,0.167006 0.0631,0.150865 0.0374,0.776924 -0.05,1.215381 -0.10353,0.51951 -0.33041,1.162378 -0.60555,1.715812 l -0.24632,0.495482 0.007,0.388471 c 0.0155,0.889311 0.15724,1.299882 0.44876,1.299882 0.2009,0 0.35644,-0.177719 0.47077,-0.537882 0.0287,-0.09039 0.0596,-0.17719 0.0687,-0.192879 0.009,-0.01569 0.0189,-0.452717 0.0219,-0.971176 0.009,-1.538502 0.14057,-2.566899 0.40017,-3.124063 0.21413,-0.459591 0.53921,-0.634182 0.83029,-0.44593 0.13065,0.0845 0.16834,0.210954 0.16293,0.546735 -0.0127,0.786349 -0.26505,1.698005 -0.72234,2.609265 l -0.20944,0.417361 v 0.383946 c 0,0.86334 0.15449,1.314623 0.45002,1.314623 0.19833,0 0.34559,-0.172788 0.47986,-0.563076 0.0308,-0.08939 0.0677,-0.177447 0.0821,-0.195672 0.0144,-0.01822 0.034,-0.288628 0.0434,-0.600899 0.0182,-0.599192 0.08,-1.097137 0.16403,-1.322528 0.0711,-0.190686 0.17401,-0.258918 0.39242,-0.260202 0.0968,-5.68e-4 0.18329,0.0063 0.19229,0.01526 0.009,0.009 -0.009,0.143434 -0.0406,0.298824 -0.20955,1.038701 -0.25511,2.17365 -0.0959,2.387973 0.12499,0.168207 0.30676,0.08366 0.45607,-0.21212 0.13381,-0.265069 0.22488,-0.650348 0.33899,-1.434052 0.13558,-0.93122 0.13887,-0.942512 0.29565,-1.013688 0.1265,-0.05743 0.25243,-0.07135 0.36712,-0.04055 l 0.0626,0.0168 -0.054,0.226446 c -0.10754,0.451392 -0.15898,0.98261 -0.15994,1.651604 -6.3e-4,0.431994 0.0113,0.682797 0.0365,0.765571 0.0865,0.284384 0.26044,0.363892 0.40921,0.187081 0.10812,-0.128491 0.14396,-0.204036 0.26765,-0.564184 l 0.10745,-0.312881 -3e-4,-0.553265 c -3e-4,-0.496286 -0.0314,-0.968149 -0.0728,-1.102084 -0.0108,-0.03483 0.0275,-0.07239 0.13357,-0.131003 0.19418,-0.107325 0.30989,-0.107677 0.37954,-0.0012 0.0455,0.06959 0.0521,0.14383 0.047,0.526421 -0.003,0.244972 -10e-4,0.440474 0.004,0.434453 0.006,-0.006 0.0449,-0.09615 0.0871,-0.200271 0.10205,-0.252096 0.36808,-0.647196 0.55092,-0.818223 0.19088,-0.17855 0.35495,-0.232581 0.49846,-0.16415 0.14007,0.06679 0.15232,0.158412 0.11043,0.82587 -0.019,0.302854 -0.0299,0.555283 -0.0242,0.560948 0.006,0.0057 0.0534,-0.110158 0.10605,-0.257388 0.10814,-0.30229 0.43799,-0.829137 0.61816,-0.98733 0.26544,-0.233061 0.51816,-0.236158 0.62658,-0.0077 0.0548,0.115492 0.0536,0.205095 -0.0194,1.444466 -0.0571,0.969999 0.009,1.372765 0.22952,1.394672 0.12024,0.01195 0.2336,-0.08125 0.32987,-0.271215 0.1553,-0.30647 0.1666,-0.366349 0.16199,-0.858299 -0.006,-0.680983 0.0781,-1.34159 0.20206,-1.580552 0.0743,-0.143201 0.21776,-0.223882 0.39811,-0.223882 0.0789,0 0.15009,0.0066 0.15812,0.01461 0.008,0.008 -0.006,0.08122 -0.0302,0.162629 -0.13619,0.450063 -0.19654,0.864692 -0.21293,1.462841 -0.0179,0.653327 0.0121,0.960682 0.11443,1.172996 0.15744,0.326626 0.40187,0.128865 0.61876,-0.500643 0.0729,-0.211689 0.0907,-0.321199 0.10663,-0.657412 0.0177,-0.374157 -0.0155,-1.152412 -0.0563,-1.317824 -0.0153,-0.06191 0.002,-0.08293 0.12971,-0.153881 0.1819,-0.101413 0.31214,-0.106874 0.37595,-0.01576 0.037,0.05283 0.047,0.161339 0.0486,0.530412 0.002,0.418009 0.006,0.45347 0.0412,0.357775 0.0907,-0.246332 0.39594,-0.75058 0.58373,-0.96446 0.1659,-0.188949 0.42512,-0.217114 0.57091,-0.06203 0.0676,0.07192 0.072,0.09794 0.072,0.425366 0,0.191818 -0.0186,0.587697 -0.0414,0.879734 -0.0437,0.561104 -0.032,1.182615 0.026,1.375966 0.11189,0.373147 0.41975,0.268684 0.60581,-0.205552 0.0658,-0.167798 0.0819,-0.257197 0.0819,-0.455718 0,-1.092642 0.34658,-1.939541 0.86408,-2.111425 0.29528,-0.09808 0.55931,-0.0557 0.6927,0.111172 0.0467,0.05837 0.0496,0.05848 0.13168,0.0047 0.081,-0.05307 0.40329,-0.08162 0.4456,-0.03947 0.01,0.0096 -0.009,0.144079 -0.0407,0.298824 -0.11911,0.575707 -0.16198,0.961957 -0.16224,1.461707 -4.5e-4,0.84088 0.13254,1.246318 0.38778,1.182256 0.16991,-0.04265 0.44307,-0.614205 0.4365,-0.913315 -0.004,-0.202333 0.0471,-1.375132 0.0725,-1.651 l 0.0186,-0.201706 h -0.14032 c -0.13544,0 -0.13999,-0.0029 -0.13086,-0.08218 0.009,-0.07485 0.0217,-0.08297 0.14723,-0.09111 l 0.13776,-0.0089 0.0197,-0.245062 c 0.0108,-0.134785 0.0416,-0.365704 0.0683,-0.513153 0.0554,-0.306245 0.13272,-0.415216 0.31928,-0.450214 0.15418,-0.02893 0.32802,0.0073 0.30633,0.06381 -0.0181,0.04714 -0.12321,0.770133 -0.14606,1.004637 l -0.0138,0.140969 0.31746,0.0084 c 0.31644,0.0084 0.31745,0.0087 0.31745,0.08315 0,0.07425 -0.002,0.0748 -0.3287,0.08965 l -0.32871,0.01494 -0.0255,0.254 c -0.0436,0.434863 -0.0402,2.117078 0.005,2.265163 0.11783,0.389182 0.37768,0.294371 0.57679,-0.210455 0.0966,-0.244895 0.0974,-0.251269 0.10398,-0.81459 0.007,-0.56711 0.06,-1.057857 0.14703,-1.350794 0.0522,-0.175729 0.17714,-0.303407 0.33087,-0.338079 0.11343,-0.02558 0.28157,-0.0092 0.28157,0.02735 0,0.01065 -0.0322,0.146801 -0.0716,0.302559 -0.14316,0.566542 -0.17844,0.850221 -0.18021,1.448609 -0.002,0.788225 0.0731,1.119498 0.266,1.167904 0.11395,0.0286 0.20142,-0.04659 0.32137,-0.276256 0.15762,-0.301785 0.23216,-0.573667 0.23216,-0.846807 0,-1.003243 0.26081,-1.649153 0.762,-1.887087 0.14768,-0.07011 0.21881,-0.0851 0.40341,-0.08503 0.25573,8.9e-5 0.3599,0.04675 0.49245,0.220522 0.248479,0.325784 0.296349,1.258172 0.10334,2.012857 -0.11627,0.454609 -0.38363,0.88958 -0.63864,1.039027 -0.15221,0.0892 -0.40052,0.121343 -0.53986,0.06988 z m 0.68732,-0.483864 c 0.25773,-0.26898 0.38761,-0.777667 0.36624,-1.434377 -0.0165,-0.507603 -0.065,-0.677814 -0.2522,-0.886057 -0.14561,-0.16196 -0.15456,-0.200604 -0.068,-0.293511 l 0.061,-0.06548 -0.0746,-0.03399 c -0.342,-0.155823 -0.67494,0.693091 -0.67494,1.720921 0,0.492243 0.0354,0.723912 0.14005,0.917224 0.13383,0.24716 0.31215,0.273869 0.50245,0.07526 z M 93.721391,74.3817 c 0.19308,-0.15188 0.42423,-0.864093 0.54912,-1.691969 0.0445,-0.295247 0.0872,-0.57783 0.0948,-0.627961 0.0115,-0.07607 7.5e-4,-0.09708 -0.0649,-0.127 -0.12051,-0.05491 -0.20139,-0.04359 -0.34643,0.04848 -0.16209,0.102895 -0.27524,0.247207 -0.38583,0.492041 -0.14624,0.32379 -0.1938,0.606551 -0.19457,1.156799 -7.5e-4,0.532321 0.01,0.605847 0.10542,0.727262 0.0741,0.09416 0.14307,0.100521 0.24246,0.02234 z m -13.55661,-1.944995 c 0.36337,-0.829484 0.55319,-1.56741 0.55239,-2.14736 -4.8e-4,-0.34639 -0.0346,-0.461431 -0.14149,-0.476795 -0.13063,-0.01878 -0.23095,0.232445 -0.35071,0.878275 -0.12469,0.672355 -0.26583,2.093468 -0.20159,2.029762 0.0166,-0.01644 0.0802,-0.144182 0.1414,-0.283882 z m 1.49602,-0.06728 c 0.39385,-0.932693 0.59072,-1.800452 0.52076,-2.295385 -0.028,-0.198315 -0.0671,-0.266983 -0.1521,-0.266983 -0.12751,0 -0.2553,0.375783 -0.3709,1.090706 -0.11693,0.723125 -0.22178,1.858524 -0.16859,1.82565 0.0159,-0.0098 0.0928,-0.169116 0.17083,-0.353988 z m 18.856039,2.620131 c -0.0725,-0.07246 -0.087,-0.177029 -0.0636,-0.457182 0.0668,-0.799314 0.0683,-2.110481 0.003,-2.366352 -0.0175,-0.06836 -0.004,-0.08516 0.13167,-0.158772 0.18769,-0.10215 0.32668,-0.09811 0.38164,0.0111 0.025,0.04975 0.038,0.224464 0.0387,0.522941 l 10e-4,0.448235 0.0695,-0.169059 c 0.12735,-0.309606 0.46156,-0.831647 0.61518,-0.960908 0.18326,-0.154205 0.41221,-0.13641 0.53478,0.04156 0.0673,0.09778 0.0697,0.118741 0.0541,0.475814 -0.009,0.205441 -0.0321,0.561788 -0.0515,0.791882 -0.0466,0.553529 -0.0242,1.240865 0.0462,1.412814 0.0794,0.194068 0.20881,0.238829 0.35595,0.123092 0.0838,-0.06593 0.22238,-0.3173 0.2866,-0.519906 0.0411,-0.129575 0.0821,-0.194235 0.12339,-0.194235 0.0775,0 -0.0751,0.514801 -0.21546,0.726715 -0.16792,0.253507 -0.52554,0.387535 -0.73921,0.277039 -0.27405,-0.141717 -0.40397,-0.723604 -0.33418,-1.496813 0.0683,-0.756591 0.0732,-1.051235 0.0188,-1.13416 -0.0705,-0.107599 -0.14741,-0.09468 -0.26682,0.04482 -0.38999,0.45562 -0.69595,1.664804 -0.5955,2.353544 0.0273,0.187413 0.027,0.188668 -0.056,0.231588 -0.10991,0.05684 -0.27952,0.05495 -0.33823,-0.0038 z M 89.514971,71.169692 c -0.0852,-0.08521 -0.1016,-0.123129 -0.1016,-0.235029 0,-0.398239 0.51353,-0.476647 0.65618,-0.100189 0.0521,0.13759 -0.0211,0.326271 -0.15311,0.394544 -0.14601,0.0755 -0.28756,0.05459 -0.40147,-0.05933 z m 7.88754,0.04579 c -0.18032,-0.113309 -0.20189,-0.372202 -0.0437,-0.523814 0.23867,-0.228656 0.60571,-0.03896 0.56155,0.290227 -0.0324,0.241322 -0.30785,0.365574 -0.5179,0.233587 z m -29.21858,-4.131848 c -0.0404,-0.120425 -0.82345,-3.711531 -0.81182,-3.723154 0.008,-0.0076 0.25343,-0.07409 0.5463,-0.147765 2.60907,-0.656343 5.17046,-1.065431 7.83873,-1.251953 l 0.28388,-0.01984 0.32594,0.787952 c 0.17926,0.433374 0.34063,0.803495 0.35858,0.822491 0.018,0.019 0.47631,0.217901 1.01855,0.442011 l 0.98589,0.407474 0.98634,-0.407415 c 0.54249,-0.224078 1.00112,-0.422983 1.01918,-0.442011 0.018,-0.01903 0.17695,-0.384 0.35311,-0.811049 0.17616,-0.427048 0.32393,-0.780095 0.32839,-0.784549 0.0141,-0.01413 1.14173,0.08161 1.87049,0.158818 1.61554,0.171159 3.47344,0.47851 5.12482,0.847798 0.85598,0.191417 1.66402,0.399753 1.67449,0.431731 0.006,0.01815 -0.17394,0.860001 -0.39974,1.870771 l -0.41053,1.837765 -0.0885,-0.0025 c -0.0487,-0.0014 -0.49188,-0.08519 -0.98493,-0.186246 -3.63771,-0.745547 -7.16596,-1.071252 -10.71242,-0.9889 -2.91231,0.06763 -5.67123,0.398152 -8.38241,1.004236 -0.93243,0.208445 -0.90761,0.204301 -0.92438,0.154353 z m 9.7845,-3.663558 c -0.4191,-0.173438 -0.76648,-0.318991 -0.77196,-0.32345 -0.005,-0.0045 -0.15074,-0.348394 -0.32281,-0.764297 -0.19044,-0.460307 -0.30681,-0.7799 -0.29741,-0.816789 0.008,-0.03333 0.14902,-0.383329 0.31229,-0.777776 l 0.29684,-0.717177 0.77165,-0.322525 0.77164,-0.322524 0.74484,0.307583 c 0.40966,0.169171 0.76106,0.321031 0.78088,0.337466 0.0359,0.02973 0.64251,1.478003 0.64251,1.533875 0,0.02969 -0.61419,1.527209 -0.63251,1.542199 -0.005,0.0045 -0.31252,0.133205 -0.68231,0.286058 -0.3698,0.152853 -0.7127,0.294741 -0.762,0.315307 -0.084,0.03503 -0.13774,0.01749 -0.85165,-0.27795 z m -10.74211,-0.612959 c -0.0224,-0.06697 -3.08985,-13.871474 -3.08373,-13.877593 0.003,-0.0033 1.38377,1.548334 3.06778,3.44801 3.05238,3.443284 3.0619,3.453641 3.0819,3.352151 0.011,-0.05599 0.27253,-2.374357 0.58111,-5.151921 0.30858,-2.777565 0.56991,-5.0606 0.58072,-5.07341 0.0108,-0.01281 1.01269,1.990801 2.22639,4.45247 1.21369,2.46167 2.21107,4.481366 2.21639,4.488214 0.005,0.0068 0.0152,0.0068 0.0219,0 0.007,-0.0068 0.63964,-2.64786 1.40649,-5.868916 0.76685,-3.221056 1.39697,-5.859171 1.40028,-5.862477 0.003,-0.0033 0.63,2.618656 1.39264,5.826583 0.76265,3.207927 1.39665,5.852441 1.40888,5.876698 0.0148,0.02925 0.29764,-0.514109 0.84009,-1.613647 0.44981,-0.911763 1.44938,-2.938802 2.22126,-4.504531 1.26412,-2.564181 1.40536,-2.837092 1.42281,-2.749177 0.0106,0.05368 0.27054,2.363434 0.57753,5.132781 0.30699,2.769347 0.56735,5.059312 0.57857,5.088811 0.016,0.04201 0.68431,-0.694374 3.08288,-3.396799 1.68437,-1.897739 3.0651,-3.447813 3.06831,-3.44461 0.0183,0.01834 -3.09248,13.897834 -3.11674,13.905921 -0.0162,0.0054 -0.33128,-0.0634 -0.70025,-0.152867 -2.37893,-0.576837 -4.8034,-0.977048 -7.16269,-1.182358 -0.38207,-0.03325 -0.72007,-0.06045 -0.75111,-0.06045 -0.0459,0 -0.13,-0.177515 -0.45012,-0.950062 l -0.39368,-0.950062 -0.9918,-0.410014 c -0.54549,-0.225508 -1.00524,-0.410014 -1.02168,-0.410014 -0.0164,0 -0.47618,0.184503 -1.02166,0.410005 l -0.99178,0.410005 -0.38438,0.927659 -0.38438,0.927659 -0.17772,0.02093 c -0.0977,0.01151 -0.45339,0.04266 -0.79032,0.06922 -2.29799,0.181145 -4.99915,0.643897 -7.23395,1.23929 -0.5044,0.13438 -0.50269,0.134109 -0.51992,0.0825 z m 11.96584,-5.415568 c 0.25323,-0.106495 0.47029,-0.203986 0.48236,-0.216647 0.0121,-0.01266 0.1055,-0.227819 0.20763,-0.478129 l 0.18569,-0.455108 -0.19448,-0.471245 -0.19447,-0.471245 -0.47416,-0.196706 -0.47415,-0.196706 -0.46325,0.190792 c -0.25479,0.104936 -0.47149,0.200177 -0.48155,0.211648 -0.0101,0.01147 -0.10276,0.22568 -0.20599,0.476021 l -0.1877,0.455167 0.18616,0.456245 c 0.10238,0.250935 0.19613,0.46671 0.20833,0.479499 0.0188,0.01972 0.88421,0.398772 0.92956,0.407157 0.009,0.0016 0.22279,-0.08425 0.47602,-0.190743 z m -0.008,-3.751556 0.36103,-0.152066 0.16608,-0.403358 0.16608,-0.403357 -0.16986,-0.406708 -0.16985,-0.406707 -0.38495,-0.159429 c -0.21173,-0.08769 -0.40157,-0.159428 -0.42187,-0.159428 -0.0203,0 -0.21014,0.07174 -0.42187,0.159428 l -0.38495,0.159429 -0.16997,0.40699 -0.16997,0.40699 0.16379,0.396093 c 0.0901,0.217851 0.16857,0.400866 0.1744,0.406699 0.0471,0.04708 0.79205,0.332122 0.83978,0.321318 0.0336,-0.0076 0.22357,-0.08226 0.42213,-0.165894 z m 0.19534,-3.786676 0.11138,-0.26758 -0.1079,-0.270974 -0.10789,-0.270975 -0.25832,-0.107071 c -0.14207,-0.05889 -0.27075,-0.107071 -0.28595,-0.107071 -0.0152,0 -0.14388,0.04818 -0.28595,0.107071 l -0.25832,0.107071 -0.10789,0.270975 -0.1079,0.270974 0.11144,0.267718 0.11143,0.267717 0.2686,0.111574 0.26859,0.111574 0.26865,-0.111712 0.26865,-0.111712 z"
       id="path40" />
  </g>
</svg>
